<svg width="40" height="40" viewBox="0 0 40 40" fill="none" xmlns="http://www.w3.org/2000/svg">
<circle cx="20" cy="20" r="20" fill="#332E59"/>
<g clip-path="url(#clip0_34_32)">
<path d="M22.5 25.3333C22.5 26.212 21.8201 26.9318 20.9577 26.9954L20.8333 27H19.1666C18.288 27 17.5682 26.3201 17.5045 25.4577L17.5 25.3333H22.5ZM20.0001 11.1667C23.1547 11.1667 25.7244 13.6706 25.8301 16.7994L25.8335 17V20.1366L27.3518 23.1734C27.642 23.7539 27.2539 24.4319 26.6276 24.4952L26.532 24.5H13.4683C12.8193 24.5 12.3864 23.8496 12.6099 23.2611L12.6484 23.1734L14.1668 20.1366V17C14.1668 13.7783 16.7784 11.1667 20.0001 11.1667Z" fill="white"/>
</g>
<circle cx="24" cy="12.5" r="2.5" fill="#F20493" stroke="#332E59"/>
<defs>
<clipPath id="clip0_34_32">
<rect width="20" height="20" fill="white" transform="translate(10 9.5)"/>
</clipPath>
</defs>
</svg>
