<svg width="20" height="20" viewBox="0 0 20 20" fill="none" xmlns="http://www.w3.org/2000/svg">
<g clip-path="url(#clip0_47_1512)">
<path d="M16.6667 4.16667C17.1269 4.16667 17.5 4.53977 17.5 5C17.5 5.46023 17.1269 5.83333 16.6667 5.83333H15.8334L15.8312 5.89274L15.0532 16.7854C14.9909 17.6576 14.2652 18.3333 13.3907 18.3333H6.6093C5.73491 18.3333 5.00917 17.6576 4.94687 16.7854L4.16882 5.89274C4.1674 5.87282 4.16668 5.85301 4.16667 5.83333H3.33333C2.8731 5.83333 2.5 5.46023 2.5 5C2.5 4.53977 2.8731 4.16667 3.33333 4.16667H16.6667ZM11.6667 1.66667C12.1269 1.66667 12.5 2.03977 12.5 2.5C12.5 2.96023 12.1269 3.33333 11.6667 3.33333H8.33333C7.8731 3.33333 7.5 2.96023 7.5 2.5C7.5 2.03977 7.8731 1.66667 8.33333 1.66667H11.6667Z" fill="white" fill-opacity="0.7"/>
</g>
<defs>
<clipPath id="clip0_47_1512">
<rect width="20" height="20" fill="white"/>
</clipPath>
</defs>
</svg>
