<svg width="21" height="20" viewBox="0 0 21 20" fill="none" xmlns="http://www.w3.org/2000/svg">
<g clip-path="url(#clip0_47_1396)">
<path d="M11.3333 2.5C12.212 2.5 12.9318 3.1799 12.9954 4.04228L13 4.16667V17.5H7.99996V4.16667C7.99996 3.28803 8.67986 2.5682 9.54224 2.50457L9.66663 2.5H11.3333ZM17.1666 6.66667C18.0871 6.66667 18.8333 7.41286 18.8333 8.33333V15.8333C18.8333 16.7538 18.0871 17.5 17.1666 17.5H14.6666V6.66667H17.1666ZM6.33329 9.16667V17.5H3.83329C2.91282 17.5 2.16663 16.7538 2.16663 15.8333V10.8333C2.16663 9.91283 2.91282 9.16667 3.83329 9.16667H6.33329Z" fill="white"/>
</g>
<defs>
<clipPath id="clip0_47_1396">
<rect width="20" height="20" fill="white" transform="translate(0.5)"/>
</clipPath>
</defs>
</svg>
