<svg width="24" height="24" viewBox="0 0 24 24" fill="none" xmlns="http://www.w3.org/2000/svg">
<g clip-path="url(#clip0_47_1453)">
<path fill-rule="evenodd" clip-rule="evenodd" d="M19 11C20.0544 11 20.9182 11.8159 20.9945 12.8507L21 13V19C21 20.0544 20.1841 20.9182 19.1493 20.9945L19 21H15C13.9456 21 13.0818 20.1841 13.0055 19.1493L13 19V13C13 11.9456 13.8159 11.0818 14.8507 11.0055L15 11H19ZM9 15C10.1046 15 11 15.8954 11 17V19C11 20.1046 10.1046 21 9 21H5C3.89543 21 3 20.1046 3 19V17C3 15.8954 3.89543 15 5 15H9ZM9 3C10.1046 3 11 3.89543 11 5V11C11 12.1046 10.1046 13 9 13H5C3.89543 13 3 12.1046 3 11V5C3 3.89543 3.89543 3 5 3H9ZM19 3C20.1046 3 21 3.89543 21 5V7C21 8.10457 20.1046 9 19 9H15C13.8954 9 13 8.10457 13 7V5C13 3.89543 13.8954 3 15 3H19Z" fill="white"/>
</g>
<defs>
<clipPath id="clip0_47_1453">
<rect width="24" height="24" fill="white"/>
</clipPath>
</defs>
</svg>
