<svg width="20" height="20" viewBox="0 0 20 20" fill="none" xmlns="http://www.w3.org/2000/svg">
<g clip-path="url(#clip0_47_1504)">
<path d="M15.8333 15.8333C16.2936 15.8333 16.6666 16.2064 16.6666 16.6667C16.6666 17.094 16.345 17.4463 15.9305 17.4944L15.8333 17.5H9.99998C9.53973 17.5 9.16665 17.1269 9.16665 16.6667C9.16665 16.2393 9.48834 15.8871 9.90279 15.8389L9.99998 15.8333H15.8333ZM13.4133 3.64018C14.2269 2.82659 15.546 2.82659 16.3596 3.64018C17.1378 4.4184 17.1716 5.65912 16.4611 6.47755L16.3596 6.58646L7.27955 15.6665C7.20005 15.746 7.11033 15.8143 7.01286 15.8696L6.91291 15.9206L3.74281 17.3615C3.06892 17.6678 2.3771 17.0144 2.60491 16.3411L2.63824 16.2569L4.07919 13.0868C4.12571 12.9845 4.18575 12.8891 4.25757 12.803L4.33326 12.7203L13.4133 3.64018Z" fill="white" fill-opacity="0.7"/>
</g>
<defs>
<clipPath id="clip0_47_1504">
<rect width="20" height="20" fill="white"/>
</clipPath>
</defs>
</svg>
