<svg width="20" height="20" viewBox="0 0 20 20" fill="none" xmlns="http://www.w3.org/2000/svg">
<path fill-rule="evenodd" clip-rule="evenodd" d="M9.99994 5.00003C7.19994 5.00003 4.99994 7.20003 4.99994 10C4.99994 12.8 7.19994 15 9.99994 15C12.7999 15 14.9999 12.8 14.9999 10C14.9999 7.20003 12.7999 5.00003 9.99994 5.00003ZM9.99994 3.05176e-05C4.49994 3.05176e-05 -6.10352e-05 4.50003 -6.10352e-05 10C-6.10352e-05 15.5 4.49994 20 9.99994 20C15.4999 20 19.9999 15.5 19.9999 10C19.9999 4.50003 15.4999 3.05176e-05 9.99994 3.05176e-05ZM9.99994 18C5.59994 18 1.99994 14.4 1.99994 10C1.99994 5.60003 5.59994 2.00003 9.99994 2.00003C14.3999 2.00003 17.9999 5.60003 17.9999 10C17.9999 14.4 14.3999 18 9.99994 18Z" fill="url(#paint0_linear_57_18)"/>
<defs>
<linearGradient id="paint0_linear_57_18" x1="0.80351" y1="13.5898" x2="18.7568" y2="13.3959" gradientUnits="userSpaceOnUse">
<stop stop-color="#F20493"/>
<stop offset="1" stop-color="#9616C4"/>
</linearGradient>
</defs>
</svg>
