<svg width="20" height="20" viewBox="0 0 20 20" fill="none" xmlns="http://www.w3.org/2000/svg">
<g clip-path="url(#clip0_41_5914)">
<path d="M11.6667 14.1667C12.1269 14.1667 12.5 14.5398 12.5 15C12.5 15.4274 12.1783 15.7796 11.7639 15.8277L11.6667 15.8333H8.33333C7.8731 15.8333 7.5 15.4603 7.5 15C7.5 14.5726 7.8217 14.2204 8.23615 14.1723L8.33333 14.1667H11.6667ZM14.1667 9.16667C14.6269 9.16667 15 9.53976 15 10C15 10.4603 14.6269 10.8333 14.1667 10.8333H5.83333C5.3731 10.8333 5 10.4603 5 10C5 9.53976 5.3731 9.16667 5.83333 9.16667H14.1667ZM16.6667 4.16667C17.1269 4.16667 17.5 4.53977 17.5 5.00001C17.5 5.46024 17.1269 5.83334 16.6667 5.83334H3.33333C2.8731 5.83334 2.5 5.46024 2.5 5.00001C2.5 4.53977 2.8731 4.16667 3.33333 4.16667H16.6667Z" fill="white"/>
</g>
<defs>
<clipPath id="clip0_41_5914">
<rect width="20" height="20" fill="white"/>
</clipPath>
</defs>
</svg>
