<svg width="24" height="24" viewBox="0 0 24 24" fill="none" xmlns="http://www.w3.org/2000/svg">
<g clip-path="url(#clip0_47_1461)">
<path d="M17 4C18.1059 4 18.9552 4.843 19.5842 5.74967L19.7972 6.07105L19.9922 6.3901C20.0542 6.49522 20.1133 6.59868 20.1696 6.69921C20.9568 8.10625 21.6416 9.94322 22.0951 11.7575C22.5456 13.5593 22.7935 15.4395 22.6349 16.919C22.4759 18.4035 21.7111 20 20 20C18.4664 20 17.2573 19.1798 16.2747 18.3787L15.1642 17.4475C14.2433 16.6921 13.2327 16 12 16C10.7673 16 9.75671 16.6921 8.83577 17.4475L7.72529 18.3787C6.74266 19.1798 5.53359 20 4.00002 20C2.28897 20 1.52419 18.4035 1.36515 16.919C1.20663 15.4395 1.45448 13.5593 1.90493 11.7575C2.35847 9.94323 3.04321 8.10626 3.83047 6.69922L4.00789 6.39011L4.20289 6.07105L4.41583 5.74967C5.04488 4.84299 5.89416 4 7.00002 4C7.5097 4 8.01722 4.12393 8.51522 4.27088L9.10778 4.45182C9.20562 4.48167 9.30297 4.51082 9.39975 4.53847C10.2653 4.78576 11.15 5 12 5C12.85 5 13.7347 4.78576 14.6003 4.53848L15.4848 4.27088C15.9828 4.12393 16.4903 4 17 4ZM8.5 8C7.11929 8 6 9.11929 6 10.5C6 11.8807 7.11929 13 8.5 13C9.88071 13 11 11.8807 11 10.5C11 9.11929 9.88071 8 8.5 8ZM15.5 8C14.9477 8 14.5 8.44772 14.5 9V9.5H14C13.4477 9.5 13 9.94772 13 10.5C13 11.0523 13.4477 11.5 14 11.5H14.5V12C14.5 12.5523 14.9477 13 15.5 13C16.0523 13 16.5 12.5523 16.5 12V11.5H17C17.5523 11.5 18 11.0523 18 10.5C18 9.94772 17.5523 9.5 17 9.5H16.5V9C16.5 8.44772 16.0523 8 15.5 8ZM8.5 10C8.77614 10 9 10.2239 9 10.5C9 10.7761 8.77614 11 8.5 11C8.22386 11 8 10.7761 8 10.5C8 10.2239 8.22386 10 8.5 10Z" fill="white" fill-opacity="0.7"/>
</g>
<defs>
<clipPath id="clip0_47_1461">
<rect width="24" height="24" fill="white"/>
</clipPath>
</defs>
</svg>
