<svg width="81" height="64" viewBox="0 0 81 64" fill="none" xmlns="http://www.w3.org/2000/svg">
<g filter="url(#filter0_d_47_1449)">
<path fill-rule="evenodd" clip-rule="evenodd" d="M49.0591 41.6923C54.3894 41.6923 58.7105 37.3529 58.7105 32C58.7105 26.6471 54.3894 22.3077 49.0591 22.3077C46.1918 22.3077 43.6159 23.5619 41.8456 25.5604C41.7948 25.641 41.738 25.7192 41.6753 25.7943L41.2487 26.3049C41.2138 26.353 41.1679 26.3935 41.1338 26.4423L33.3695 35.7347C32.6081 36.6459 31.2553 36.7648 30.3479 36.0001C29.4405 35.2355 29.3221 33.877 30.0835 32.9657L37.5074 24.0808C35.9339 22.9629 34.0147 22.3077 31.9409 22.3077C26.6106 22.3077 22.2895 26.6471 22.2895 32C22.2895 37.3529 26.6106 41.6923 31.9409 41.6923C34.8084 41.6923 37.3843 40.4381 39.1544 38.4396C39.2053 38.359 39.2621 38.2808 39.3249 38.2057L39.7515 37.6951C39.7864 37.647 39.8321 37.6065 39.8662 37.5577L47.6307 28.2653C48.3921 27.3541 49.7448 27.2352 50.6522 27.9999C51.5597 28.7645 51.678 30.123 50.9167 31.0343L43.4928 39.9193C45.0662 41.0371 46.9853 41.6923 49.0591 41.6923ZM40.5 43.0512C42.8614 44.8979 45.8334 46 49.0591 46C56.7585 46 63 39.7321 63 32C63 24.268 56.7585 18 49.0591 18C45.8321 18 42.8616 19.102 40.5002 20.9487C38.1386 19.1021 35.1666 18 31.9409 18C24.2416 18 18 24.268 18 32C18 39.7321 24.2416 46 31.9409 46C35.168 46 38.1386 44.8979 40.5 43.0512Z" fill="white"/>
</g>
<defs>
<filter id="filter0_d_47_1449" x="0" y="0" width="81" height="64" filterUnits="userSpaceOnUse" color-interpolation-filters="sRGB">
<feFlood flood-opacity="0" result="BackgroundImageFix"/>
<feColorMatrix in="SourceAlpha" type="matrix" values="0 0 0 0 0 0 0 0 0 0 0 0 0 0 0 0 0 0 127 0" result="hardAlpha"/>
<feOffset/>
<feGaussianBlur stdDeviation="9"/>
<feComposite in2="hardAlpha" operator="out"/>
<feColorMatrix type="matrix" values="0 0 0 0 0.980392 0 0 0 0 0.980392 0 0 0 0 0.980392 0 0 0 0.7 0"/>
<feBlend mode="normal" in2="BackgroundImageFix" result="effect1_dropShadow_47_1449"/>
<feBlend mode="normal" in="SourceGraphic" in2="effect1_dropShadow_47_1449" result="shape"/>
</filter>
</defs>
</svg>
