<svg width="20" height="20" viewBox="0 0 20 20" fill="none" xmlns="http://www.w3.org/2000/svg">
<path d="M8.74998 16.6667C8.74998 17.357 9.30965 17.9167 9.99998 17.9167C10.6903 17.9167 11.25 17.357 11.25 16.6667V11.25H16.6666C17.357 11.25 17.9166 10.6903 17.9166 9.99999C17.9166 9.30966 17.357 8.74999 16.6666 8.74999H11.25V3.33333C11.25 2.64297 10.6903 2.08333 9.99998 2.08333C9.30965 2.08333 8.74998 2.64297 8.74998 3.33333V8.74999H3.33331C2.64295 8.74999 2.08331 9.30966 2.08331 9.99999C2.08331 10.6903 2.64295 11.25 3.33331 11.25H8.74998V16.6667Z" fill="white"/>
</svg>
