<svg width="20" height="20" viewBox="0 0 20 20" fill="none" xmlns="http://www.w3.org/2000/svg">
<g clip-path="url(#clip0_41_5743)">
<path fill-rule="evenodd" clip-rule="evenodd" d="M8.74999 1.66666C4.83797 1.66666 1.66666 4.83797 1.66666 8.74999C1.66666 12.662 4.83797 15.8333 8.74999 15.8333C10.4057 15.8333 11.9288 15.2652 13.1349 14.3133L16.1785 17.3569C16.5039 17.6823 17.0316 17.6823 17.357 17.3569C17.6824 17.0315 17.6824 16.5038 17.357 16.1784L14.3134 13.1348C15.2652 11.9287 15.8333 10.4057 15.8333 8.74999C15.8333 4.83797 12.662 1.66666 8.74999 1.66666ZM3.33332 8.74999C3.33332 5.75845 5.75845 3.33332 8.74999 3.33332C11.7416 3.33332 14.1667 5.75845 14.1667 8.74999C14.1667 11.7416 11.7416 14.1667 8.74999 14.1667C5.75845 14.1667 3.33332 11.7416 3.33332 8.74999Z" fill="white" fill-opacity="0.5"/>
</g>
<defs>
<clipPath id="clip0_41_5743">
<rect width="20" height="20" fill="white"/>
</clipPath>
</defs>
</svg>
